<svg width="1200" height="700" viewBox="0 0 1200 700" xmlns="http://www.w3.org/2000/svg">
  <defs>
    <linearGradient id="bgGov" x1="0" x2="1">
      <stop offset="0%" stop-color="#eaf0f6"/>
      <stop offset="100%" stop-color="#dfe8f2"/>
    </linearGradient>
  </defs>
  <rect width="1200" height="700" fill="url(#bgGov)"/>
  <rect x="420" y="50" width="360" height="600" rx="34" fill="#f7f9fc" stroke="#dfe7f0"/>
  <rect x="455" y="84" width="290" height="20" rx="10" fill="#dfe6ef"/>
  <rect x="470" y="130" width="120" height="120" rx="24" fill="#eff5ff" stroke="#dfe8f8"/>
  <rect x="610" y="130" width="110" height="52" rx="18" fill="#e5efff"/>
  <rect x="610" y="198" width="110" height="52" rx="18" fill="#edf3ff"/>

  <rect x="470" y="280" width="250" height="80" rx="18" fill="#eef5ff"/>
  <text x="494" y="318" font-family="Arial, sans-serif" font-size="15" fill="#3d576f">Urgência</text>
  <text x="494" y="342" font-family="Arial, sans-serif" font-size="30" font-weight="700" fill="#0f172a">SAMU</text>

  <rect x="470" y="382" width="250" height="112" rx="18" fill="#f4f8ff"/>
  <text x="494" y="412" font-family="Arial, sans-serif" font-size="14" fill="#3d576f">Serviços</text>
  <rect x="494" y="432" width="180" height="12" rx="6" fill="#dceafe"/>
  <rect x="494" y="452" width="146" height="12" rx="6" fill="#dceafe"/>
  <rect x="494" y="472" width="166" height="12" rx="6" fill="#dceafe"/>

  <rect x="500" y="520" width="210" height="48" rx="16" fill="#3b82f6"/>
  <text x="558" y="550" font-family="Arial, sans-serif" font-size="16" font-weight="700" fill="#fff">Emergência</text>
</svg>
