<svg width="1200" height="700" viewBox="0 0 1200 700" xmlns="http://www.w3.org/2000/svg">
  <defs>
    <linearGradient id="bg" x1="0" x2="1">
      <stop offset="0%" stop-color="#071521"/>
      <stop offset="100%" stop-color="#111827"/>
    </linearGradient>
    <linearGradient id="panel" x1="0" x2="1">
      <stop offset="0%" stop-color="#101d2d"/>
      <stop offset="100%" stop-color="#0d1725"/>
    </linearGradient>
    <linearGradient id="green" x1="0" x2="1">
      <stop offset="0%" stop-color="#2dd4bf"/>
      <stop offset="100%" stop-color="#34d399"/>
    </linearGradient>
  </defs>
  <rect width="1200" height="700" fill="url(#bg)"/>
  <rect x="0" y="0" width="260" height="700" fill="#081521" opacity="0.9"/>
  <rect x="0" y="0" width="260" height="60" fill="#0b1a2a"/>
  <text x="32" y="38" font-family="Arial, sans-serif" font-size="18" font-weight="700" fill="#edf6ff">Meu LIFE OS</text>
  <rect x="24" y="100" width="210" height="30" rx="8" fill="#111b2b" stroke="#3b4a62"/>
  <text x="52" y="121" font-family="Arial, sans-serif" font-size="13" fill="#b9c9d8">Search...</text>
  <text x="190" y="121" font-family="Arial, sans-serif" font-size="11" fill="#c5d2df">⌘K</text>

  <text x="38" y="200" font-family="Arial, sans-serif" font-size="13" fill="#a9b8c7">Principal</text>
  <rect x="26" y="226" width="200" height="36" rx="10" fill="#1a2635"/>
  <text x="54" y="250" font-family="Arial, sans-serif" font-size="13" fill="#f0f7ff">Dashboard</text>
  <text x="40" y="300" font-family="Arial, sans-serif" font-size="13" fill="#b7c4d1">Tarefas</text>
  <text x="40" y="342" font-family="Arial, sans-serif" font-size="13" fill="#b7c4d1">Projetos</text>
  <text x="40" y="384" font-family="Arial, sans-serif" font-size="13" fill="#b7c4d1">Calendário</text>
  <text x="40" y="430" font-family="Arial, sans-serif" font-size="13" fill="#b7c4d1">Faculdades &amp; Cursos</text>
  <text x="40" y="472" font-family="Arial, sans-serif" font-size="13" fill="#b7c4d1">Diário</text>
  <text x="40" y="514" font-family="Arial, sans-serif" font-size="13" fill="#b7c4d1">Livros</text>
  <text x="40" y="556" font-family="Arial, sans-serif" font-size="13" fill="#b7c4d1">Tracking</text>

  <rect x="320" y="18" width="760" height="520" rx="22" fill="url(#panel)" stroke="#2a394d"/>
  <text x="350" y="82" font-family="Arial, sans-serif" font-size="38" font-weight="700" fill="#e7f1ff">Bom dia, João!</text>
  <text x="350" y="110" font-family="Arial, sans-serif" font-size="14" fill="#9ab0c3">Domingo, 27 de Setembro  •  Semana 40  •  00:14:15</text>

  <g>
    <rect x="350" y="160" width="150" height="100" rx="14" fill="#172536"/>
    <text x="372" y="190" font-family="Arial, sans-serif" font-size="12" fill="#8ca7bb">TAREFAS</text>
    <text x="387" y="220" font-family="Arial, sans-serif" font-size="34" font-weight="700" fill="#eef6ff">0</text>
    <text x="370" y="245" font-family="Arial, sans-serif" font-size="12" fill="#7a93ac">Concluídas hoje</text>

    <rect x="520" y="160" width="150" height="100" rx="14" fill="#172536"/>
    <text x="542" y="190" font-family="Arial, sans-serif" font-size="12" fill="#8ca7bb">PROJETOS</text>
    <text x="560" y="220" font-family="Arial, sans-serif" font-size="34" font-weight="700" fill="#eef6ff">1 / 2</text>
    <text x="545" y="245" font-family="Arial, sans-serif" font-size="12" fill="#7a93ac">Concluídos</text>

    <rect x="690" y="160" width="150" height="100" rx="14" fill="#172536"/>
    <text x="712" y="190" font-family="Arial, sans-serif" font-size="12" fill="#8ca7bb">ESTUDO SEMANAL</text>
    <text x="734" y="220" font-family="Arial, sans-serif" font-size="34" font-weight="700" fill="#eef6ff">4h</text>
    <text x="710" y="245" font-family="Arial, sans-serif" font-size="12" fill="#7a93ac">Clique para adicionar</text>

    <rect x="860" y="160" width="150" height="100" rx="14" fill="#172536"/>
    <text x="875" y="190" font-family="Arial, sans-serif" font-size="12" fill="#8ca7bb">SEQUÊNCIA</text>
    <text x="900" y="220" font-family="Arial, sans-serif" font-size="34" font-weight="700" fill="#eef6ff">1</text>
    <text x="882" y="245" font-family="Arial, sans-serif" font-size="12" fill="#7a93ac">Dias consecutivos</text>
  </g>

  <g>
    <text x="350" y="330" font-family="Arial, sans-serif" font-size="16" fill="#dfeaf5" font-weight="700">PRODUTIVIDADE SEMANAL</text>
    <path d="M350 420 C470 350, 550 410, 630 390 S820 280, 970 370 L970 470 L350 470 Z" fill="rgba(52,211,153,0.15)"/>
    <path d="M350 420 C470 350, 550 410, 630 390 S820 280, 970 370" fill="none" stroke="url(#green)" stroke-width="4" stroke-linecap="round"/>
    <path d="M350 420 C470 380, 540 400, 630 395 S800 340, 970 360" fill="none" stroke="#60a5fa" stroke-width="3" stroke-linecap="round" opacity="0.9"/>
    <text x="370" y="470" font-family="Arial, sans-serif" font-size="12" fill="#8ca7bb">Seg</text>
    <text x="500" y="470" font-family="Arial, sans-serif" font-size="12" fill="#8ca7bb">Ter</text>
    <text x="630" y="470" font-family="Arial, sans-serif" font-size="12" fill="#8ca7bb">Qua</text>
    <text x="740" y="470" font-family="Arial, sans-serif" font-size="12" fill="#8ca7bb">Qui</text>
    <text x="850" y="470" font-family="Arial, sans-serif" font-size="12" fill="#8ca7bb">Sex</text>
    <text x="935" y="470" font-family="Arial, sans-serif" font-size="12" fill="#8ca7bb">Sáb</text>
  </g>

  <rect x="1020" y="20" width="160" height="530" rx="18" fill="#0a1523"/>
  <text x="1045" y="60" font-family="Arial, sans-serif" font-size="12" fill="#9ab0c3">Tarefas</text>
  <text x="1150" y="60" font-family="Arial, sans-serif" font-size="12" fill="#9ab0c3">0/0</text>
  <text x="1045" y="110" font-family="Arial, sans-serif" font-size="12" fill="#9ab0c3">Nenhuma tarefa para hoje.</text>
  <text x="1045" y="170" font-family="Arial, sans-serif" font-size="12" fill="#9ab0c3">PRÓXIMOS EVENTOS</text>
  <g fill="#d9eaf9">
    <text x="1045" y="225" font-family="Arial, sans-serif" font-size="12">07:30</text>
    <text x="1110" y="225" font-family="Arial, sans-serif" font-size="12">Votação</text>
    <text x="1045" y="255" font-family="Arial, sans-serif" font-size="11" fill="#92a7bd">Rotina • Estudo</text>
  </g>
  <g fill="#d9eaf9">
    <text x="1045" y="300" font-family="Arial, sans-serif" font-size="12">09:00</text>
    <text x="1110" y="300" font-family="Arial, sans-serif" font-size="12">Revisão</text>
    <text x="1045" y="330" font-family="Arial, sans-serif" font-size="11" fill="#92a7bd">Rotina • Estudo</text>
  </g>
  <g fill="#d9eaf9">
    <text x="1045" y="375" font-family="Arial, sans-serif" font-size="12">13:30</text>
    <text x="1110" y="375" font-family="Arial, sans-serif" font-size="12">Cálculo</text>
    <text x="1045" y="405" font-family="Arial, sans-serif" font-size="11" fill="#92a7bd">Rotina • Estudo</text>
  </g>
</svg>
